<svg width="17" height="17" viewBox="0 0 17 17" fill="none" xmlns="http://www.w3.org/2000/svg">
<path d="M5 3.5C5 2.57174 5.36875 1.6815 6.02513 1.02513C6.6815 0.368749 7.57174 7.00815e-08 8.5 0C9.42826 -7.00815e-08 10.3185 0.368749 10.9749 1.02513C11.6313 1.6815 12 2.57174 12 3.5L10.9974 3.5C10.9974 2.83765 10.7343 2.20243 10.2659 1.73408C9.79757 1.26573 9.16235 1.00261 8.5 1.00261C7.83765 1.00261 7.20243 1.26573 6.73408 1.73408C6.26573 2.20243 6.00261 2.83765 6.00261 3.5H5Z" fill="#14274E"/>
<rect x="5" y="3.5" width="1" height="4" fill="#14274E"/>
<rect x="5" y="7" width="7" height="1" fill="#14274E"/>
<rect x="11" y="3.5" width="1" height="4" fill="#14274E"/>
<path d="M13.5 5C14.4283 5 15.3185 5.36875 15.9749 6.02513C16.6313 6.6815 17 7.57174 17 8.5C17 9.42826 16.6313 10.3185 15.9749 10.9749C15.3185 11.6313 14.4283 12 13.5 12L13.5 10.9974C14.1623 10.9974 14.7976 10.7343 15.2659 10.2659C15.7343 9.79757 15.9974 9.16235 15.9974 8.5C15.9974 7.83765 15.7343 7.20243 15.2659 6.73408C14.7976 6.26573 14.1623 6.00261 13.5 6.00261V5Z" fill="#14274E"/>
<rect x="13.5" y="5" width="1" height="4" transform="rotate(90 13.5 5)" fill="#14274E"/>
<rect x="10" y="5" width="7" height="1" transform="rotate(90 10 5)" fill="#14274E"/>
<rect x="13.5" y="11" width="1" height="4" transform="rotate(90 13.5 11)" fill="#14274E"/>
<path d="M3.5 12C2.57174 12 1.6815 11.6313 1.02513 10.9749C0.368749 10.3185 7.00815e-08 9.42826 0 8.5C-7.00815e-08 7.57174 0.368749 6.6815 1.02513 6.02513C1.6815 5.36875 2.57174 5 3.5 5L3.5 6.00261C2.83765 6.00261 2.20243 6.26573 1.73408 6.73408C1.26573 7.20243 1.00261 7.83765 1.00261 8.5C1.00261 9.16235 1.26573 9.79757 1.73408 10.2659C2.20243 10.7343 2.83765 10.9974 3.5 10.9974V12Z" fill="#14274E"/>
<rect x="3.5" y="12" width="1" height="4" transform="rotate(-90 3.5 12)" fill="#14274E"/>
<rect x="7" y="12" width="7" height="1" transform="rotate(-90 7 12)" fill="#14274E"/>
<rect x="3.5" y="6" width="1" height="4" transform="rotate(-90 3.5 6)" fill="#14274E"/>
<path d="M12 13.5C12 14.4283 11.6313 15.3185 10.9749 15.9749C10.3185 16.6313 9.42826 17 8.5 17C7.57174 17 6.6815 16.6313 6.02513 15.9749C5.36875 15.3185 5 14.4283 5 13.5L6.00261 13.5C6.00261 14.1623 6.26573 14.7976 6.73408 15.2659C7.20243 15.7343 7.83765 15.9974 8.5 15.9974C9.16235 15.9974 9.79757 15.7343 10.2659 15.2659C10.7343 14.7976 10.9974 14.1623 10.9974 13.5L12 13.5Z" fill="#14274E"/>
<rect x="12" y="13.5" width="1" height="4" transform="rotate(-180 12 13.5)" fill="#14274E"/>
<rect x="12" y="10" width="7" height="1" transform="rotate(-180 12 10)" fill="#14274E"/>
<rect x="6" y="13.5" width="1" height="4" transform="rotate(-180 6 13.5)" fill="#14274E"/>
</svg>
