<svg width="85" height="85" viewBox="0 0 85 85" fill="none" xmlns="http://www.w3.org/2000/svg">
<rect x="14" y="14" width="20" height="20" fill="#14274E"/>
<rect x="49" y="50" width="22" height="20" fill="#14274E"/>
<rect x="49" y="14" width="21" height="20" fill="#14274E"/>
<rect x="14" y="49" width="20" height="21" fill="#14274E"/>
<rect x="12" y="12.4264" width="3" height="60" rx="1.5" fill="white"/>
<rect x="69" y="12.4264" width="3" height="60" rx="1.5" fill="white"/>
<rect x="12" y="15.4264" width="3" height="60" rx="1.5" transform="rotate(-90 12 15.4264)" fill="white"/>
<rect x="12" y="72.4264" width="3" height="60" rx="1.5" transform="rotate(-90 12 72.4264)" fill="white"/>
<path d="M42.5 2.5L82.5 42.5H42.5V2.5Z" fill="#14274E"/>
<path d="M42.5 82.5L2.5 42.5H42.5V82.5Z" fill="#14274E"/>
<path d="M2.5 42.5L42.5 2.5V42.5H2.5Z" fill="#14274E"/>
<path d="M82.5 42.5L42.5 82.5V42.5H82.5Z" fill="#14274E"/>
<rect y="42.4264" width="3" height="60" rx="1.5" transform="rotate(-45 0 42.4264)" fill="white"/>
<rect x="40.3052" y="2.12132" width="3" height="60" rx="1.5" transform="rotate(-45 40.3052 2.12132)" fill="white"/>
<rect x="2.12134" y="44.5477" width="3" height="60" rx="1.5" transform="rotate(-135 2.12134 44.5477)" fill="white"/>
<rect x="42.4265" y="84.8528" width="3" height="60" rx="1.5" transform="rotate(-135 42.4265 84.8528)" fill="white"/>
<path d="M39.7308 18L43.1924 10L46.6539 23.5C47.8077 24.6667 50.1154 27.2 50.1154 28V33C49.4231 34.3333 47.7616 37.3 46.6539 38.5C45.5462 39.7 41.577 39 39.7308 38.5L36.2693 37V33C36.2693 32.2 37.1924 28 37.6539 26L39.7308 18Z" fill="#14274E"/>
<path d="M40.4143 11H44.5681C39.3547 23.8533 32.08 34 44.5681 44H40.4142C27.9262 34 35.1469 23.9214 40.4143 11Z" fill="white"/>
<path d="M44.5714 11H40.4143C45.6318 23.8533 52.9123 34 40.4143 44H44.5716C57.0695 34 49.843 23.9214 44.5714 11Z" fill="white"/>
<path d="M42.4912 6L40.4143 11H44.5682L42.4912 6Z" fill="white"/>
<path d="M52.9045 25.9045L61.5776 22.0776L61.7507 26.7507L58.5391 32.0391L56.3276 36.3276C55.9558 37.6225 54.9738 40.1737 54.0199 40.0199C53.0661 39.8661 50.9558 42.6225 50.0199 44.0199L41.6738 42.6737L41.0968 39.0968L41.6161 35.1161L43.8276 30.8276L48.6161 28.1161L52.9045 25.9045Z" fill="#14274E"/>
<path d="M62.2236 19.8511L65.1608 22.7883C52.3858 28.1905 40.0669 30.2213 41.8263 46.1228L38.889 43.1855C37.1297 27.2841 49.3622 25.2633 62.2236 19.8511Z" fill="white"/>
<path d="M65.1634 22.7906L62.2238 19.8511C56.8246 32.6291 54.7978 44.952 38.8893 43.1856L41.8289 46.1252C57.7374 47.8915 59.7541 35.655 65.1634 22.7906Z" fill="white"/>
<path d="M67.2279 17.7842L62.2237 19.8511L65.161 22.7883L67.2279 17.7842Z" fill="white"/>
<path d="M67.5 44.5769L74 42.5L65.5 39.0385L56.5 35.5769H51C49.3333 35.8077 45.8 36.2692 45 36.2692C44.2 36.2692 43.3333 39.0385 43 40.4231L45 47.3462L51.5 48.7308H58.5L67.5 44.5769Z" fill="#14274E"/>
<path d="M73 40.4143V44.5681C60.1467 39.3547 50 32.08 40 44.5681V40.4142C50 27.9262 60.0786 35.1469 73 40.4143Z" fill="white"/>
<path d="M73 44.5715V40.4143C60.1467 45.6318 50 52.9123 40 40.4143V44.5716C50 57.0695 60.0786 49.843 73 44.5715Z" fill="white"/>
<path d="M78 42.4912L73 40.4143V44.5681L78 42.4912Z" fill="white"/>
<path d="M54.4489 61.0512L61.6219 63.3781L60.3912 56.6089L57.8719 50.6281L55.7566 45.7435L50.3719 43.1281L42.9104 42.5896L42.1412 47.3589L42.7758 54.2242L47.8719 58.6281L54.4489 61.0512Z" fill="#14274E"/>
<path d="M64.6377 62.6501L61.7005 65.5873C56.2983 52.8122 54.2675 40.4934 38.366 42.2528L41.3033 39.3155C57.2047 37.5562 59.2255 49.7887 64.6377 62.6501Z" fill="white"/>
<path d="M61.6982 65.5896L64.6377 62.6501C51.8598 57.2508 39.5368 55.2241 41.3032 39.3155L38.3636 42.2552C36.5973 58.1636 48.8338 60.1804 61.6982 65.5896Z" fill="white"/>
<path d="M66.7047 67.6542L64.6378 62.6501L61.7006 65.5873L66.7047 67.6542Z" fill="white"/>
<path d="M45.9614 65.5L42.4999 73L39.7307 65.5L36.9614 58.5L34.8845 52.5L36.9614 47.5L41.8076 43L47.3461 44.5L50.1153 51L49.423 58.5L45.9614 65.5Z" fill="#14274E"/>
<path d="M44.5857 74H40.4319C45.6453 61.1467 52.92 51 40.4319 41H44.5858C57.0738 51 49.8531 61.0786 44.5857 74Z" fill="white"/>
<path d="M40.4286 74H44.5857C39.3682 61.1467 32.0877 51 44.5857 41H40.4284C27.9305 51 35.157 61.0786 40.4286 74Z" fill="white"/>
<path d="M42.5088 79L44.5857 74H40.4318L42.5088 79Z" fill="white"/>
<path d="M27.8088 60.8113L21.828 63.3305L26.3665 51.869L28.1934 45.1959L33.3857 41.3882L41.6357 42.1382L43.6934 47.6959L41.6742 53.1767L36.078 58.0805L27.8088 60.8113Z" fill="#14274E"/>
<path d="M22.3365 65.0642L19.3992 62.127C32.1743 56.7248 44.4931 54.6939 42.7338 38.7924L45.6711 41.7297C47.4303 57.6312 35.1978 59.652 22.3365 65.0642Z" fill="white"/>
<path d="M19.3967 62.1246L22.3362 65.0642C27.7355 52.2862 29.7622 39.9633 45.6708 41.7297L42.7311 38.79C26.8227 37.0237 24.8059 49.2603 19.3967 62.1246Z" fill="white"/>
<path d="M17.3322 67.1311L22.3363 65.0642L19.3991 62.127L17.3322 67.1311Z" fill="white"/>
<path d="M18.5 45.2692L12.5 42.5L20.5 38.3462L31 34.8846L36 38.3462L41.5 42.5L34 50.1154L26.5 48.7308L18.5 45.2692Z" fill="#14274E"/>
<path d="M12 44.5857V40.4319C24.8533 45.6453 35 52.92 45 40.4319V44.5858C35 57.0738 24.9214 49.8531 12 44.5857Z" fill="white"/>
<path d="M12 40.4285V44.5857C24.8533 39.3682 35 32.0877 45 44.5857V40.4284C35 27.9305 24.9214 35.157 12 40.4285Z" fill="white"/>
<path d="M7 42.5088L12 44.5857V40.4319L7 42.5088Z" fill="white"/>
<path d="M24.1768 28.3233L21.3499 20.6502L30.0229 24.4772L34.3114 26.6887L40.0999 30.4002L43.2922 32.2079L44.4075 36.0925L44.1383 41.3618L43.0614 44.4387L38.8883 45.1118L33.8114 44.1887L31.3114 41.6887L28.0037 36.9964L24.1768 28.3233Z" fill="#14274E"/>
<path d="M19.4248 22.2652L22.362 19.328C27.7642 32.103 29.795 44.4219 45.6965 42.6625L42.7592 45.5998C26.8578 47.3591 24.837 35.1266 19.4248 22.2652Z" fill="white"/>
<path d="M22.3643 19.3256L19.4248 22.2652C32.2027 27.6645 44.5257 29.6912 42.7593 45.5997L45.6989 42.6601C47.4652 26.7516 35.2287 24.7349 22.3643 19.3256Z" fill="white"/>
<path d="M17.3578 17.261L19.4247 22.2652L22.3619 19.328L17.3578 17.261Z" fill="white"/>
<path d="M36 38.6471L43 45V36L45.5 26L43 21L36.5 26L36 38.6471Z" fill="#14274E"/>
<path d="M38 40.5L49 33L40 29.5L38 40.5Z" fill="#14274E"/>
<path d="M40.4143 11H44.5681C39.3547 23.8533 32.08 34 44.5681 44H40.4142C27.9262 34 35.1469 23.9214 40.4143 11Z" fill="white"/>
<path d="M62.2236 19.8511L65.1608 22.7883C52.3858 28.1905 40.0669 30.2213 41.8263 46.1228L38.889 43.1855C37.1297 27.2841 49.3622 25.2633 62.2236 19.8511Z" fill="white"/>
<circle cx="41.5" cy="42.5" r="7.5" fill="#14274E"/>
<path d="M49 42.5C49 46.6421 45.6421 50 41.5 50C37.3579 50 34 46.6421 34 42.5C34 38.3579 37.3579 35 41.5 35C45.6421 35 49 38.3579 49 42.5ZM37.1025 42.5C37.1025 44.9287 39.0713 46.8975 41.5 46.8975C43.9287 46.8975 45.8975 44.9287 45.8975 42.5C45.8975 40.0713 43.9287 38.1025 41.5 38.1025C39.0713 38.1025 37.1025 40.0713 37.1025 42.5Z" fill="white"/>
</svg>
