<svg width="35" height="35" viewBox="0 0 35 35" fill="none" xmlns="http://www.w3.org/2000/svg">
<rect y="21" width="2" height="4" rx="1" transform="rotate(-90 0 21)" fill="#14274E"/>
<path d="M1 16C0.447715 16 0 15.5523 0 15V15C0 14.4477 0.447715 14 1 14H3C3.55228 14 4 14.4477 4 15V15C4 15.5523 3.55228 16 3 16H1Z" fill="#14274E"/>
<rect y="21" width="7" height="2" rx="1" transform="rotate(-90 0 21)" fill="#14274E"/>
<rect x="31" y="21" width="2" height="4" rx="1" transform="rotate(-90 31 21)" fill="#14274E"/>
<path d="M32 16C31.4477 16 31 15.5523 31 15V15C31 14.4477 31.4477 14 32 14H34C34.5523 14 35 14.4477 35 15V15C35 15.5523 34.5523 16 34 16H32Z" fill="#14274E"/>
<rect x="33" y="21" width="7" height="2" rx="1" transform="rotate(-90 33 21)" fill="#14274E"/>
<rect x="5.53857" y="24.5115" width="2" height="4" rx="1" transform="rotate(45 5.53857 24.5115)" fill="#14274E"/>
<path d="M8.36711 28.7541C8.75764 28.3636 9.3908 28.3636 9.78133 28.7541V28.7541C10.1718 29.1447 10.1718 29.7778 9.78133 30.1684L8.36711 31.5826C7.97659 31.9731 7.34342 31.9731 6.9529 31.5826V31.5826C6.56237 31.1921 6.56237 30.5589 6.9529 30.1684L8.36711 28.7541Z" fill="#14274E"/>
<rect x="4.12427" y="25.9257" width="7" height="2" rx="1" transform="rotate(45 4.12427 25.9257)" fill="#14274E"/>
<rect x="27.3994" y="2.65076" width="2" height="4" rx="1" transform="rotate(45 27.3994 2.65076)" fill="#14274E"/>
<path d="M30.228 6.8934C30.6185 6.50288 31.2516 6.50288 31.6422 6.8934V6.8934C32.0327 7.28393 32.0327 7.91709 31.6422 8.30761L30.228 9.72183C29.8374 10.1124 29.2043 10.1124 28.8137 9.72183V9.72183C28.4232 9.3313 28.4232 8.69814 28.8137 8.30761L30.228 6.8934Z" fill="#14274E"/>
<rect x="27.3994" y="2.65076" width="7" height="2" rx="1" transform="rotate(45 27.3994 2.65076)" fill="#14274E"/>
<rect x="24.3586" y="29.3083" width="2" height="4" rx="1" transform="rotate(-45 24.3586 29.3083)" fill="#14274E"/>
<path d="M28.6014 26.4799C28.2109 26.0894 28.2109 25.4562 28.6014 25.0657V25.0657C28.9919 24.6752 29.6251 24.6752 30.0156 25.0657L31.4298 26.4799C31.8203 26.8704 31.8203 27.5036 31.4298 27.8941V27.8941C31.0393 28.2847 30.4061 28.2847 30.0156 27.8941L28.6014 26.4799Z" fill="#14274E"/>
<rect x="25.7729" y="30.7226" width="7" height="2" rx="1" transform="rotate(-45 25.7729 30.7226)" fill="#14274E"/>
<rect x="2.65088" y="7.60051" width="2" height="4" rx="1" transform="rotate(-45 2.65088 7.60051)" fill="#14274E"/>
<path d="M6.89363 4.77208C6.50311 4.38155 6.50311 3.74839 6.89363 3.35787V3.35787C7.28415 2.96734 7.91732 2.96734 8.30784 3.35787L9.72206 4.77208C10.1126 5.1626 10.1126 5.79577 9.72206 6.18629V6.18629C9.33153 6.57682 8.69837 6.57682 8.30784 6.18629L6.89363 4.77208Z" fill="#14274E"/>
<rect x="2.65088" y="7.60051" width="7" height="2" rx="1" transform="rotate(-45 2.65088 7.60051)" fill="#14274E"/>
<rect x="14" y="31" width="2" height="4" rx="1" fill="#14274E"/>
<path d="M19 32C19 31.4477 19.4477 31 20 31V31C20.5523 31 21 31.4477 21 32V34C21 34.5523 20.5523 35 20 35V35C19.4477 35 19 34.5523 19 34V32Z" fill="#14274E"/>
<rect x="14" y="33" width="7" height="2" rx="1" fill="#14274E"/>
<rect x="14" width="2" height="4" rx="1" fill="#14274E"/>
<path d="M19 1C19 0.447715 19.4477 0 20 0V0C20.5523 0 21 0.447715 21 1V3C21 3.55228 20.5523 4 20 4V4C19.4477 4 19 3.55228 19 3V1Z" fill="#14274E"/>
<rect x="14" width="7" height="2" rx="1" fill="#14274E"/>
<path d="M31.9216 19.0054C31.6299 21.7999 30.5326 24.4495 28.7631 26.632L27.0736 25.2622C28.5777 23.4071 29.5104 21.1549 29.7584 18.7796L31.9216 19.0054Z" fill="#14274E"/>
<path d="M26.6369 28.759C24.4508 30.5331 21.7955 31.6324 18.9951 31.9227L18.7708 29.7593C21.1512 29.5126 23.4082 28.5782 25.2664 27.0702L26.6369 28.759Z" fill="#14274E"/>
<path d="M16.0058 31.9228C13.2064 31.6328 10.5519 30.5343 8.36605 28.7615L9.73614 27.0723C11.5941 28.5792 13.8504 29.5129 16.2299 29.7594L16.0058 31.9228Z" fill="#14274E"/>
<path d="M6.23998 26.6357C4.46762 24.4513 3.36895 21.7984 3.07785 19.0005L5.24117 18.7754C5.48861 21.1537 6.42248 23.4086 7.92898 25.2654L6.23998 26.6357Z" fill="#14274E"/>
<path d="M3.07787 15.9993C3.36894 13.202 4.46725 10.5497 6.23899 8.36548L7.92814 9.73565C6.42216 11.5922 5.4886 13.8467 5.24119 16.2244L3.07787 15.9993Z" fill="#14274E"/>
<path d="M8.36696 6.23778C10.5509 4.46672 13.2027 3.36886 15.9994 3.07786L16.2245 5.24118C13.8473 5.48853 11.5933 6.42172 9.73692 7.92711L8.36696 6.23778Z" fill="#14274E"/>
<path d="M18.9978 3.07757C21.7946 3.36803 24.4467 4.46542 26.631 6.23611L25.2613 7.9257C23.4047 6.42061 21.1504 5.48782 18.7731 5.24093L18.9978 3.07757Z" fill="#14274E"/>
<path d="M28.7607 8.3651C30.5308 10.5472 31.6289 13.1965 31.9213 15.9911L29.7581 16.2174C29.5095 13.8421 28.5762 11.5901 27.0716 9.73533L28.7607 8.3651Z" fill="#14274E"/>
<path d="M27 17.5C27 22.7467 22.7467 27 17.5 27C12.2533 27 8 22.7467 8 17.5C8 12.2533 12.2533 8 17.5 8C22.7467 8 27 12.2533 27 17.5ZM10.0056 17.5C10.0056 21.639 13.361 24.9944 17.5 24.9944C21.639 24.9944 24.9944 21.639 24.9944 17.5C24.9944 13.361 21.639 10.0056 17.5 10.0056C13.361 10.0056 10.0056 13.361 10.0056 17.5Z" fill="#14274E"/>
</svg>
