<svg width="180" height="60" viewBox="0 0 180 60" fill="none" xmlns="http://www.w3.org/2000/svg">
<rect width="37" height="60" rx="3" fill="#14274E"/>
<rect x="35" width="2" height="60" rx="1" fill="white"/>
<rect width="2" height="60" rx="1" fill="white"/>
<rect width="37" height="2" rx="1" fill="white"/>
<rect y="58" width="37" height="2" rx="1" fill="white"/>
<rect x="125" width="37" height="60" rx="3" fill="#14274E"/>
<rect x="160" width="2" height="60" rx="1" fill="white"/>
<rect x="125" width="2" height="60" rx="1" fill="white"/>
<rect x="125" width="37" height="2" rx="1" fill="white"/>
<rect x="125" y="58" width="37" height="2" rx="1" fill="white"/>
<rect x="6" y="10" width="174" height="40" rx="20" fill="#14274E"/>
<rect x="26" y="10" width="134" height="2" fill="white"/>
<rect x="26" y="48" width="134" height="2" fill="white"/>
<path d="M171 30C171 34.4183 167.418 38 163 38C158.582 38 155 34.4183 155 30C155 25.5817 158.582 22 163 22C167.418 22 171 25.5817 171 30ZM157.003 30C157.003 33.3121 159.688 35.997 163 35.997C166.312 35.997 168.997 33.3121 168.997 30C168.997 26.6879 166.312 24.003 163 24.003C159.688 24.003 157.003 26.6879 157.003 30Z" fill="white"/>
<path d="M31 30C31 34.4183 27.4183 38 23 38C18.5817 38 15 34.4183 15 30C15 25.5817 18.5817 22 23 22C27.4183 22 31 25.5817 31 30ZM17.0198 30C17.0198 33.3027 19.6973 35.9802 23 35.9802C26.3027 35.9802 28.9802 33.3027 28.9802 30C28.9802 26.6973 26.3027 24.0198 23 24.0198C19.6973 24.0198 17.0198 26.6973 17.0198 30Z" fill="white"/>
<path d="M160 10C162.626 10 165.227 10.5173 167.654 11.5224C170.08 12.5275 172.285 14.0007 174.142 15.8579C175.999 17.715 177.472 19.9198 178.478 22.3463C179.483 24.7728 180 27.3736 180 30C180 32.6264 179.483 35.2272 178.478 37.6537C177.472 40.0802 175.999 42.285 174.142 44.1421C172.285 45.9993 170.08 47.4725 167.654 48.4776C165.227 49.4827 162.626 50 160 50L160 48.0223C162.367 48.0223 164.71 47.5561 166.897 46.6504C169.083 45.7447 171.07 44.4172 172.744 42.7437C174.417 41.0701 175.745 39.0834 176.65 36.8968C177.556 34.7103 178.022 32.3667 178.022 30C178.022 27.6333 177.556 25.2897 176.65 23.1032C175.745 20.9166 174.417 18.9299 172.744 17.2563C171.07 15.5828 169.083 14.2553 166.897 13.3496C164.71 12.4439 162.367 11.9777 160 11.9777V10Z" fill="white"/>
<path d="M26 50C23.3736 50 20.7728 49.4827 18.3463 48.4776C15.9198 47.4725 13.715 45.9993 11.8579 44.1421C10.0007 42.285 8.5275 40.0802 7.52241 37.6537C6.51732 35.2272 6 32.6264 6 30C6 27.3736 6.51732 24.7728 7.52241 22.3463C8.5275 19.9198 10.0007 17.715 11.8579 15.8579C13.715 14.0007 15.9198 12.5275 18.3463 11.5224C20.7728 10.5173 23.3736 10 26 10L26 12.0035C23.6367 12.0035 21.2965 12.469 19.113 13.3734C16.9296 14.2778 14.9457 15.6034 13.2745 17.2745C11.6034 18.9457 10.2778 20.9296 9.37339 23.113C8.46898 25.2965 8.00348 27.6367 8.00348 30C8.00348 32.3633 8.46898 34.7035 9.37339 36.887C10.2778 39.0704 11.6034 41.0543 13.2745 42.7255C14.9457 44.3966 16.9296 45.7222 19.113 46.6266C21.2965 47.531 23.6367 47.9965 26 47.9965V50Z" fill="white"/>
<rect x="134" y="6" width="19" height="48" rx="9.5" fill="#14274E"/>
<rect width="2" height="48" rx="1" transform="matrix(-1 0 0 1 136 6)" fill="white"/>
<rect width="2" height="48" rx="1" transform="matrix(-1 0 0 1 153 6)" fill="white"/>
<rect x="134" y="52" width="19" height="2" rx="1" fill="white"/>
<rect x="134" y="6" width="19" height="2" rx="1" fill="white"/>
</svg>
