<svg width="10" height="10" viewBox="0 0 10 10" fill="none" xmlns="http://www.w3.org/2000/svg">
<g clip-path="url(#clip0_487_367)">
<path d="M10 5C10 7.76142 7.76142 10 5 10C2.23858 10 0 7.76142 0 5C0 2.23858 2.23858 0 5 0C7.76142 0 10 2.23858 10 5ZM1 5C1 7.20914 2.79086 9 5 9C7.20914 9 9 7.20914 9 5C9 2.79086 7.20914 1 5 1C2.79086 1 1 2.79086 1 5Z" fill="#14274E"/>
<rect x="4.5" y="1.5" width="1" height="4" fill="#14274E"/>
<rect x="4.5" y="5.5" width="1" height="3" transform="rotate(-90 4.5 5.5)" fill="#14274E"/>
<rect x="4.5" y="0.300003" width="1" height="1" fill="#14274E"/>
<rect x="4.5" y="8.7" width="1" height="1" fill="#14274E"/>
<rect x="0.300049" y="4.5" width="1" height="1" fill="#14274E"/>
<rect x="8.69995" y="4.5" width="1" height="1" fill="#14274E"/>
</g>
<defs>
<clipPath id="clip0_487_367">
<rect width="10" height="10" fill="white"/>
</clipPath>
</defs>
</svg>
