<svg width="20" height="20" viewBox="0 0 20 20" fill="none" xmlns="http://www.w3.org/2000/svg">
<g clip-path="url(#clip0_499_740)">
<path d="M5.23077 17L5.76923 15L4.15385 17L2 19H3.61538L7.38462 18.5L7.92308 17.5L9 15.5L6.30769 17.5L6.84615 16L5.23077 17Z" fill="#14274E"/>
<path d="M7.9609 12.4679C5.02591 11.8676 5.07225 17.3828 2.00453 18.7913C3.77883 19.0642 4.85666 18.8227 7.18478 18.1157C9.11699 17.5289 11.4887 15.5511 10.2028 14.1925M7.9609 12.4679L9.68549 10.2261L10.246 10.6572M7.9609 12.4679C8.57123 12.8297 9.7439 13.7076 10.2028 14.1925M10.2028 14.1925L11.9273 11.9506L10.246 10.6572M10.246 10.6572L17.5753 1.12933L18.6962 1.99161L11.3669 11.5195L10.246 10.6572Z" stroke="#14274E"/>
</g>
<defs>
<clipPath id="clip0_499_740">
<rect width="20" height="20" fill="white"/>
</clipPath>
</defs>
</svg>
