<svg width="294" height="15" viewBox="0 0 294 15" fill="none" xmlns="http://www.w3.org/2000/svg">
<g clip-path="url(#clip0_498_659)">
<rect width="1" height="10" rx="0.5" transform="matrix(-0.707107 0.707107 0.707107 0.707107 168.071 0.359985)" fill="#14274E"/>
<rect width="1" height="10" rx="0.5" transform="matrix(-0.707107 0.707107 0.707107 0.707107 161.707 6.72397)" fill="#14274E"/>
<rect x="167.364" y="13.795" width="10" height="1" rx="0.5" transform="rotate(-45 167.364 13.795)" fill="#14274E"/>
<rect x="161" y="7.43106" width="10" height="1" rx="0.5" transform="rotate(-45 161 7.43106)" fill="#14274E"/>
<rect width="1" height="10" rx="0.5" transform="matrix(-0.707107 0.707107 0.707107 0.707107 126.071 0.431061)" fill="#14274E"/>
<rect width="1" height="10" rx="0.5" transform="matrix(-0.707107 0.707107 0.707107 0.707107 119.707 6.79504)" fill="#14274E"/>
<rect x="125.364" y="13.8661" width="10" height="1" rx="0.5" transform="rotate(-45 125.364 13.8661)" fill="#14274E"/>
<rect x="119" y="7.50214" width="10" height="1" rx="0.5" transform="rotate(-45 119 7.50214)" fill="#14274E"/>
<rect width="1" height="10" rx="0.5" transform="matrix(-0.707107 0.707107 0.707107 0.707107 182.071 0.431061)" fill="#14274E"/>
<rect width="1" height="10" rx="0.5" transform="matrix(-0.707107 0.707107 0.707107 0.707107 175.707 6.79504)" fill="#14274E"/>
<rect x="181.364" y="13.8661" width="10" height="1" rx="0.5" transform="rotate(-45 181.364 13.8661)" fill="#14274E"/>
<rect x="175" y="7.50214" width="10" height="1" rx="0.5" transform="rotate(-45 175 7.50214)" fill="#14274E"/>
<rect width="1" height="10" rx="0.5" transform="matrix(-0.707107 0.707107 0.707107 0.707107 140.071 0.502136)" fill="#14274E"/>
<rect width="1" height="10" rx="0.5" transform="matrix(-0.707107 0.707107 0.707107 0.707107 133.707 6.86612)" fill="#14274E"/>
<rect x="139.364" y="13.9372" width="10" height="1" rx="0.5" transform="rotate(-45 139.364 13.9372)" fill="#14274E"/>
<rect x="133" y="7.57321" width="10" height="1" rx="0.5" transform="rotate(-45 133 7.57321)" fill="#14274E"/>
<rect width="1" height="10" rx="0.5" transform="matrix(-0.707107 0.707107 0.707107 0.707107 154.071 0.431061)" fill="#14274E"/>
<rect width="1" height="10" rx="0.5" transform="matrix(-0.707107 0.707107 0.707107 0.707107 147.707 6.79504)" fill="#14274E"/>
<rect x="153.364" y="13.8661" width="10" height="1" rx="0.5" transform="rotate(-45 153.364 13.8661)" fill="#14274E"/>
<rect x="147" y="7.50214" width="10" height="1" rx="0.5" transform="rotate(-45 147 7.50214)" fill="#14274E"/>
<rect width="1" height="10" rx="0.5" transform="matrix(-0.707107 0.707107 0.707107 0.707107 112.071 0.502136)" fill="#14274E"/>
<rect width="1" height="10" rx="0.5" transform="matrix(-0.707107 0.707107 0.707107 0.707107 105.707 6.86612)" fill="#14274E"/>
<rect x="111.364" y="13.9372" width="10" height="1" rx="0.5" transform="rotate(-45 111.364 13.9372)" fill="#14274E"/>
<rect x="105" y="7.57321" width="10" height="1" rx="0.5" transform="rotate(-45 105 7.57321)" fill="#14274E"/>
<rect width="1" height="7" rx="0.5" transform="matrix(-0.707107 0.707107 0.707107 0.707107 175.021 2.43106)" fill="#14274E"/>
<rect width="1" height="7" rx="0.5" transform="matrix(-0.707107 0.707107 0.707107 0.707107 170.778 6.67371)" fill="#14274E"/>
<rect x="174.314" y="11.6234" width="7" height="1" rx="0.5" transform="rotate(-45 174.314 11.6234)" fill="#14274E"/>
<rect x="170.071" y="7.3808" width="7" height="1" rx="0.5" transform="rotate(-45 170.071 7.3808)" fill="#14274E"/>
<rect width="1" height="7" rx="0.5" transform="matrix(-0.707107 0.707107 0.707107 0.707107 133.021 2.50214)" fill="#14274E"/>
<rect width="1" height="7" rx="0.5" transform="matrix(-0.707107 0.707107 0.707107 0.707107 128.778 6.74478)" fill="#14274E"/>
<rect x="132.314" y="11.6945" width="7" height="1" rx="0.5" transform="rotate(-45 132.314 11.6945)" fill="#14274E"/>
<rect x="128.071" y="7.45187" width="7" height="1" rx="0.5" transform="rotate(-45 128.071 7.45187)" fill="#14274E"/>
<rect width="1" height="7" rx="0.5" transform="matrix(-0.707107 0.707107 0.707107 0.707107 147.021 2.57321)" fill="#14274E"/>
<rect width="1" height="7" rx="0.5" transform="matrix(-0.707107 0.707107 0.707107 0.707107 142.778 6.81586)" fill="#14274E"/>
<rect x="146.314" y="11.7656" width="7" height="1" rx="0.5" transform="rotate(-45 146.314 11.7656)" fill="#14274E"/>
<rect x="142.071" y="7.52295" width="7" height="1" rx="0.5" transform="rotate(-45 142.071 7.52295)" fill="#14274E"/>
<rect width="1" height="7" rx="0.5" transform="matrix(-0.707107 0.707107 0.707107 0.707107 161.021 2.50214)" fill="#14274E"/>
<rect width="1" height="7" rx="0.5" transform="matrix(-0.707107 0.707107 0.707107 0.707107 156.778 6.74478)" fill="#14274E"/>
<rect x="160.314" y="11.6945" width="7" height="1" rx="0.5" transform="rotate(-45 160.314 11.6945)" fill="#14274E"/>
<rect x="156.071" y="7.45187" width="7" height="1" rx="0.5" transform="rotate(-45 156.071 7.45187)" fill="#14274E"/>
<rect width="1" height="7" rx="0.5" transform="matrix(-0.707107 0.707107 0.707107 0.707107 119.021 2.57321)" fill="#14274E"/>
<rect width="1" height="7" rx="0.5" transform="matrix(-0.707107 0.707107 0.707107 0.707107 114.778 6.81586)" fill="#14274E"/>
<rect x="118.314" y="11.7656" width="7" height="1" rx="0.5" transform="rotate(-45 118.314 11.7656)" fill="#14274E"/>
<rect x="114.071" y="7.52295" width="7" height="1" rx="0.5" transform="rotate(-45 114.071 7.52295)" fill="#14274E"/>
<rect y="7" width="57" height="1" fill="#14274E"/>
<rect x="237" y="7" width="106" height="1" fill="#14274E"/>
<path d="M76 7.5C76 9.98528 73.9853 12 71.5 12C69.0147 12 67 9.98528 67 7.5C67 5.01472 69.0147 3 71.5 3C73.9853 3 76 5.01472 76 7.5ZM67.9809 7.5C67.9809 9.44352 69.5565 11.0191 71.5 11.0191C73.4435 11.0191 75.0191 9.44352 75.0191 7.5C75.0191 5.55648 73.4435 3.98095 71.5 3.98095C69.5565 3.98095 67.9809 5.55648 67.9809 7.5Z" fill="#14274E"/>
<path d="M61 7.5C61 8.88071 59.8807 10 58.5 10C57.1193 10 56 8.88071 56 7.5C56 6.11929 57.1193 5 58.5 5C59.8807 5 61 6.11929 61 7.5ZM57 7.5C57 8.32843 57.6716 9 58.5 9C59.3284 9 60 8.32843 60 7.5C60 6.67157 59.3284 6 58.5 6C57.6716 6 57 6.67157 57 7.5Z" fill="#14274E"/>
<path d="M87 7.5C87 8.88071 85.8807 10 84.5 10C83.1193 10 82 8.88071 82 7.5C82 6.11929 83.1193 5 84.5 5C85.8807 5 87 6.11929 87 7.5ZM83 7.5C83 8.32843 83.6716 9 84.5 9C85.3284 9 86 8.32843 86 7.5C86 6.67157 85.3284 6 84.5 6C83.6716 6 83 6.67157 83 7.5Z" fill="#14274E"/>
<path d="M227 7.5C227 9.98528 224.985 12 222.5 12C220.015 12 218 9.98528 218 7.5C218 5.01472 220.015 3 222.5 3C224.985 3 227 5.01472 227 7.5ZM219.004 7.5C219.004 9.43066 220.569 10.9958 222.5 10.9958C224.431 10.9958 225.996 9.43066 225.996 7.5C225.996 5.56934 224.431 4.00423 222.5 4.00423C220.569 4.00423 219.004 5.56934 219.004 7.5Z" fill="#14274E"/>
<path d="M212 7.5C212 8.88071 210.881 10 209.5 10C208.119 10 207 8.88071 207 7.5C207 6.11929 208.119 5 209.5 5C210.881 5 212 6.11929 212 7.5ZM208 7.5C208 8.32843 208.672 9 209.5 9C210.328 9 211 8.32843 211 7.5C211 6.67157 210.328 6 209.5 6C208.672 6 208 6.67157 208 7.5Z" fill="#14274E"/>
<path d="M238 7.5C238 8.88071 236.881 10 235.5 10C234.119 10 233 8.88071 233 7.5C233 6.11929 234.119 5 235.5 5C236.881 5 238 6.11929 238 7.5ZM234 7.5C234 8.32843 234.672 9 235.5 9C236.328 9 237 8.32843 237 7.5C237 6.67157 236.328 6 235.5 6C234.672 6 234 6.67157 234 7.5Z" fill="#14274E"/>
<rect x="6" y="6" width="1" height="3" rx="0.5" fill="#14274E"/>
<rect x="288" y="6" width="1" height="3" rx="0.5" fill="#14274E"/>
<rect x="5" y="6" width="1" height="3" rx="0.5" fill="#14274E"/>
<rect x="287" y="6" width="1" height="3" rx="0.5" fill="#14274E"/>
<rect x="60" y="7" width="8" height="1" fill="#14274E"/>
<rect x="75" y="7" width="8" height="1" fill="#14274E"/>
<rect x="86" y="7" width="20" height="1" fill="#14274E"/>
<rect x="226" y="7" width="8" height="1" fill="#14274E"/>
<rect x="211" y="7" width="8" height="1" fill="#14274E"/>
<rect x="188" y="7" width="20" height="1" fill="#14274E"/>
<rect x="0.258789" y="5.75" width="5" height="1" transform="rotate(15 0.258789 5.75)" fill="#14274E"/>
<rect y="8.2941" width="5" height="1" transform="rotate(-15 0 8.2941)" fill="#14274E"/>
<rect x="289.259" y="7" width="5" height="1" transform="rotate(15 289.259 7)" fill="#14274E"/>
<rect x="289" y="7" width="5" height="1" transform="rotate(-15 289 7)" fill="#14274E"/>
</g>
<defs>
<clipPath id="clip0_498_659">
<rect width="294" height="15" fill="white"/>
</clipPath>
</defs>
</svg>
